<?xml version="1.0" encoding="UTF-8"?>
<svg id="Layer_2" data-name="Layer 2" xmlns="http://www.w3.org/2000/svg" viewBox="0 0 310 310.44">
  <defs>
    <style>
      .cls-1 {
        fill: none;
      }

      .cls-2 {
        fill: #3bd5cb;
      }
    </style>
  </defs>
  <g id="Layer_1-2" data-name="Layer 1">
    <rect class="cls-1" y=".44" width="310" height="310"/>
    <g>
      <path class="cls-2" d="m22.5,293.1c-3.66,0-7.12-.82-10.3-2.42-3.3-1.67-5.76-3.96-7.33-6.81l-.37-.68v-6.53l5.73-1.24c2.57,5.67,6.35,8.32,11.91,8.32,3.42,0,6.2-1,8.49-3.07,2.2-1.98,3.27-4.06,3.27-6.35,0-2.46-.66-4.44-2-6.06-1.57-1.89-3.51-3.52-5.77-4.86-2.56-1.52-5.09-3.01-7.61-4.49-2.8-1.64-5.24-3.68-7.25-6.04-2.26-2.66-3.41-5.82-3.41-9.38,0-3.74,1.5-6.93,4.46-9.48,2.83-2.43,6.46-3.67,10.78-3.67s8.31,1.74,11.45,5.17l.79.86v15.99l-5.5-8.24c-2.01-3.02-4.31-4.42-7.22-4.42-1.38,0-2.51.42-3.58,1.33-.93.79-1.34,1.64-1.34,2.75s.57,2.23,1.75,3.33c1.62,1.51,3.6,2.92,5.89,4.19,2.55,1.42,5.16,2.96,7.75,4.58,2.88,1.8,5.36,4.12,7.38,6.9,2.17,2.99,3.27,6.45,3.27,10.28,0,5.56-2.12,10.36-6.29,14.25-4.12,3.84-9.15,5.79-14.95,5.79Z"/>
      <path class="cls-2" d="m22.62,236.7c-2.08,0-3.92.68-5.52,2.04-1.6,1.36-2.4,3.04-2.4,5.04s.9,3.84,2.7,5.52c1.8,1.68,3.96,3.22,6.48,4.62,2.52,1.4,5.06,2.9,7.62,4.5,2.56,1.6,4.74,3.64,6.54,6.12,1.8,2.48,2.7,5.32,2.7,8.52,0,4.72-1.78,8.74-5.34,12.06-3.56,3.32-7.86,4.98-12.9,4.98-3.2,0-6.18-.7-8.94-2.1-2.76-1.4-4.78-3.26-6.06-5.58v-5.76c3.04,6.72,7.92,10.08,14.64,10.08,4.16,0,7.66-1.28,10.5-3.84,2.84-2.56,4.26-5.42,4.26-8.58s-.9-5.82-2.7-7.98c-1.8-2.16-3.98-4-6.54-5.52-2.56-1.52-5.1-3.02-7.62-4.5-2.52-1.48-4.68-3.28-6.48-5.4-1.8-2.12-2.7-4.6-2.7-7.44s1.14-5.24,3.42-7.2c2.28-1.96,5.22-2.94,8.82-2.94s6.68,1.4,9.24,4.2v4.92c-2.56-3.84-5.8-5.76-9.72-5.76Z"/>
      <path class="cls-2" d="m75.3,292.5c-6.45,0-12.03-2.2-16.59-6.53-4.6-4.37-6.93-10-6.93-16.75v-59.16h9.84v21.84h16.56v9.36h-16.56v27.96c0,4.08,1.3,7.35,3.97,9.98,2.68,2.65,5.86,3.94,9.71,3.94h3v9.36h-3Z"/>
      <path class="cls-2" d="m75.3,286.14v3.36c-5.68,0-10.52-1.9-14.52-5.7-4-3.8-6-8.66-6-14.58v-56.16h3.84v21.84h16.56v3.36h-16.56v30.96c0,4.88,1.62,8.92,4.86,12.12,3.24,3.2,7.18,4.8,11.82,4.8Z"/>
      <path class="cls-2" d="m111.3,293.1c-7.52,0-13.94-2.64-19.06-7.86-5.11-5.2-7.7-11.6-7.7-19.02v-34.44h9.84v34.44c0,4.76,1.63,8.8,4.99,12.33,3.32,3.49,7.22,5.19,11.93,5.19s8.84-1.72,12.49-5.27c3.63-3.52,5.39-7.53,5.39-12.25v-34.44h9.84v60h-9.84v-4.9c-4.54,4.13-10.52,6.22-17.88,6.22Z"/>
      <path class="cls-2" d="m132.18,234.78h3.84v54h-3.84v-10.92c-4.08,8.16-11.04,12.24-20.88,12.24-6.72,0-12.36-2.32-16.92-6.96-4.56-4.64-6.84-10.28-6.84-16.92v-31.44h3.84v31.44c0,5.52,1.94,10.32,5.82,14.4,3.88,4.08,8.58,6.12,14.1,6.12s10.38-2.04,14.58-6.12c4.2-4.08,6.3-8.88,6.3-14.4v-31.44Z"/>
      <path class="cls-2" d="m178.62,293.1c-8.71,0-16.23-3.1-22.34-9.22-6.12-6.11-9.22-13.55-9.22-22.1s3.1-15.98,9.22-22.1c6.12-6.12,13.63-9.22,22.34-9.22,5.46,0,10.79,1.47,15.83,4.36,2.1,1.21,3.99,2.59,5.65,4.15v-43.19h9.84v96h-9.84v-7.35c-1.76,1.66-3.75,3.12-5.96,4.37-5,2.85-10.22,4.29-15.53,4.29Zm-.12-53.28c-5.93,0-10.9,2.14-15.19,6.54-4.31,4.42-6.41,9.48-6.41,15.48s2.08,11.05,6.35,15.43c4.25,4.36,9.22,6.47,15.19,6.47s11.02-2.13,15.4-6.5c4.38-4.38,6.5-9.39,6.5-15.34s-2.13-11.02-6.52-15.48c-4.37-4.44-9.38-6.6-15.32-6.6Z"/>
      <path class="cls-2" d="m206.94,198.78v90h-3.84v-13.08c-2.4,4.4-5.88,7.9-10.44,10.5s-9.24,3.9-14.04,3.9c-7.92,0-14.66-2.78-20.22-8.34-5.56-5.56-8.34-12.22-8.34-19.98s2.78-14.42,8.34-19.98c5.56-5.56,12.3-8.34,20.22-8.34,4.96,0,9.74,1.32,14.34,3.96,4.6,2.64,7.98,6.16,10.14,10.56v-49.2h3.84Zm-53.04,63.06c0,6.76,2.4,12.6,7.2,17.52,4.8,4.92,10.58,7.38,17.34,7.38s12.6-2.46,17.52-7.38,7.38-10.74,7.38-17.46-2.46-12.58-7.38-17.58c-4.92-5-10.74-7.5-17.46-7.5s-12.5,2.48-17.34,7.44c-4.84,4.96-7.26,10.82-7.26,17.58Z"/>
      <path class="cls-2" d="m223.74,291.78v-59.88h9.84v59.88h-9.84Zm4.92-67.08c-4,0-6.48-2.39-6.48-6.24s2.48-6.24,6.48-6.24,6.48,2.39,6.48,6.24-2.48,6.24-6.48,6.24Z"/>
      <path class="cls-2" d="m228.66,221.7c-2.32,0-3.48-1.08-3.48-3.24s1.16-3.24,3.48-3.24,3.48,1.08,3.48,3.24-1.16,3.24-3.48,3.24Zm1.92,13.2v53.88h-3.84v-53.88h3.84Z"/>
      <path class="cls-2" d="m275.46,293.1c-8.49,0-15.88-3.2-21.96-9.5-6.05-6.27-9.12-13.69-9.12-22.06s3.12-15.75,9.29-21.87c6.16-6.11,13.67-9.21,22.33-9.21s16.16,3.1,22.28,9.22c6.12,6.12,9.22,13.5,9.22,21.92s-3.03,15.82-8.99,22.05c-6,6.27-13.39,9.45-21.97,9.45h-1.08Zm.6-53.28c-5.94,0-10.95,2.16-15.32,6.6-4.39,4.46-6.52,9.52-6.52,15.48s2.13,10.96,6.5,15.34c4.38,4.37,9.41,6.5,15.4,6.5s10.94-2.12,15.19-6.47c4.27-4.38,6.35-9.42,6.35-15.43s-2.1-11.06-6.41-15.48c-4.29-4.4-9.26-6.54-15.19-6.54Z"/>
      <path class="cls-2" d="m255.66,281.52c-5.52-5.72-8.28-12.38-8.28-19.98s2.8-14.18,8.4-19.74c5.6-5.56,12.34-8.34,20.22-8.34s14.6,2.78,20.16,8.34c5.56,5.56,8.34,12.16,8.34,19.8s-2.72,14.3-8.16,19.98c-5.44,5.68-12.04,8.52-19.8,8.52h-1.08c-7.68,0-14.28-2.86-19.8-8.58Zm45-19.68c0-6.76-2.42-12.62-7.26-17.58-4.84-4.96-10.62-7.44-17.34-7.44s-12.54,2.5-17.46,7.5c-4.92,5-7.38,10.86-7.38,17.58s2.46,12.54,7.38,17.46,10.76,7.38,17.52,7.38,12.54-2.46,17.34-7.38c4.8-4.92,7.2-10.76,7.2-17.52Z"/>
    </g>
    <g>
      <polygon class="cls-2" points="30.45 26.31 30.45 88.2 100.34 88.2 100.34 110.35 30.45 110.35 30.45 188.14 6 188.14 6 4.16 113.63 4.16 113.63 26.31 30.45 26.31"/>
      <path class="cls-2" d="m136.03,185.8V3.68h24.2v182.12h-24.2Z"/>
      <path class="cls-2" d="m297.22,107.23c-5.85-8.32-14.88-14.1-27.1-17.32,10.09-3.59,17.49-8.89,22.19-15.9,4.68-7,7.04-14.95,7.04-23.85s-2.3-17.46-6.91-24.56c-4.61-7.1-11.26-12.68-19.93-16.75-8.69-4.06-19.05-6.1-31.09-6.1h-60.06v21.48c6.25.03,14.24.06,24.45.1h26.21c6.91,0,22.74,1.19,27.61,3.55,4.87,2.37,8.55,5.64,11.03,9.8,2.48,4.17,3.72,8.9,3.72,14.2,0,10.6-3.36,18.31-10.09,23.14-6.74,4.83-15.52,7.24-26.32,7.24h-32.15v21.01h38.54c11.87,0,20.81,2.84,26.83,8.52,6.03,5.68,9.04,13.34,9.04,23,0,8.9-2.84,16.18-8.5,21.86-5.68,5.68-14.89,8.52-27.64,8.52h-62.72v21.58h62.18c13.47,0,24.9-2.21,34.28-6.67,9.4-4.44,16.44-10.55,21.14-18.31,4.68-7.75,7.04-16.55,7.04-26.4,0-10.41-2.92-19.77-8.77-28.11Z"/>
    </g>
    <rect class="cls-1" width="310" height="310"/>
  </g>
</svg>