<?xml version="1.0" encoding="UTF-8"?>
<svg id="Layer_2" data-name="Layer 2" xmlns="http://www.w3.org/2000/svg" viewBox="0 0 310 310.37">
  <defs>
    <style>
      .cls-1 {
        fill: none;
      }
    </style>
  </defs>
  <g id="Layer_1-2" data-name="Layer 1">
    <g>
      <polygon points="29.45 23.57 29.45 85.46 99.34 85.46 99.34 107.61 29.45 107.61 29.45 185.4 5 185.4 5 1.42 112.63 1.42 112.63 23.57 29.45 23.57"/>
      <path d="m135.03,183.05V.93h24.2v182.12h-24.2Z"/>
      <path d="m296.22,104.48c-5.85-8.32-14.88-14.1-27.1-17.32,10.09-3.59,17.49-8.89,22.19-15.9,4.68-7,7.04-14.95,7.04-23.85s-2.3-17.46-6.91-24.56c-4.61-7.1-11.26-12.68-19.93-16.75-8.69-4.06-19.05-6.1-31.09-6.1h-60.06v21.48c6.25.03,14.24.06,24.45.1h26.21c6.91,0,22.74,1.19,27.61,3.55,4.87,2.37,8.55,5.64,11.03,9.8,2.48,4.17,3.72,8.9,3.72,14.2,0,10.6-3.36,18.31-10.09,23.14-6.74,4.83-15.52,7.24-26.32,7.24h-32.15v21.01h38.54c11.87,0,20.81,2.84,26.83,8.52,6.03,5.68,9.04,13.34,9.04,23,0,8.9-2.84,16.18-8.5,21.86-5.68,5.68-14.89,8.52-27.64,8.52h-62.72v21.58h62.18c13.47,0,24.9-2.21,34.28-6.67,9.4-4.44,16.44-10.55,21.14-18.31,4.68-7.75,7.04-16.55,7.04-26.4,0-10.41-2.92-19.77-8.77-28.11Z"/>
    </g>
    <rect class="cls-1" y=".37" width="310" height="310"/>
  </g>
</svg>