<?xml version="1.0" encoding="UTF-8"?>
<svg id="Layer_2" data-name="Layer 2" xmlns="http://www.w3.org/2000/svg" viewBox="0 0 310 310">
  <defs>
    <style>
      .cls-1 {
        fill: #c5f5f9;
        stroke: #fff;
        stroke-miterlimit: 10;
      }

      .cls-2 {
        fill: none;
      }
    </style>
  </defs>
  <g id="Layer_1-2" data-name="Layer 1">
    <circle class="cls-1" cx="155.5" cy="154" r="152.5"/>
    <g>
      <polygon points="47.69 94.09 47.69 147.73 108.26 147.73 108.26 166.92 47.69 166.92 47.69 234.34 26.5 234.34 26.5 74.89 119.78 74.89 119.78 94.09 47.69 94.09"/>
      <path d="m145.01,232.31V74.47h20.98v157.84h-20.98Z"/>
      <path d="m292.9,164.21c-5.07-7.21-12.89-12.22-23.49-15.01,8.75-3.11,15.16-7.7,19.23-13.78,4.06-6.07,6.1-12.96,6.1-20.67s-1.99-15.13-5.99-21.28c-4-6.15-9.76-10.99-17.27-14.52-7.53-3.52-16.51-5.29-26.94-5.29h-52.06v18.61c5.41.02,12.34.05,21.19.09h22.71c5.99,0,19.71,1.03,23.93,3.08,4.22,2.05,7.41,4.88,9.56,8.49,2.15,3.62,3.22,7.71,3.22,12.3,0,9.19-2.92,15.87-8.75,20.05-5.84,4.18-13.45,6.27-22.81,6.27h-27.87v18.21h33.4c10.29,0,18.04,2.46,23.25,7.38,5.23,4.92,7.84,11.57,7.84,19.93,0,7.71-2.46,14.03-7.37,18.95-4.92,4.92-12.91,7.38-23.95,7.38h-54.36v18.7h53.89c11.68,0,21.58-1.92,29.71-5.78,8.14-3.85,14.25-9.14,18.32-15.87,4.06-6.72,6.1-14.35,6.1-22.88,0-9.02-2.53-17.14-7.6-24.36Z"/>
    </g>
    <rect class="cls-2" width="310" height="310"/>
  </g>
</svg>